<svg width="900" height="717" viewBox="0 0 900 717" class="keymap" xmlns="http://www.w3.org/2000/svg" xmlns:xlink="http://www.w3.org/1999/xlink">
<style>/* inherit to force styles through use tags */
svg path {
    fill: inherit;
}

/* font and background color specifications */
svg.keymap {
    font-family: SFMono-Regular,Consolas,Liberation Mono,Menlo,monospace;
    font-size: 14px;
    font-kerning: normal;
    text-rendering: optimizeLegibility;
    fill: #24292e;
}

/* default key styling */
rect.key {
    fill: #f6f8fa;
}

rect.key, rect.combo {
    stroke: #c9cccf;
    stroke-width: 1;
}

/* default key side styling, only used is draw_key_sides is set */
rect.side {
    filter: brightness(90%);
}

/* color accent for combo boxes */
rect.combo, rect.combo-separate {
    fill: #cdf;
}

/* color accent for held keys */
rect.held, rect.combo.held {
    fill: #fdd;
}

/* color accent for ghost (optional) keys */
rect.ghost, rect.combo.ghost {
    stroke-dasharray: 4, 4;
    stroke-width: 2;
}

text {
    text-anchor: middle;
    dominant-baseline: middle;
}

/* styling for layer labels */
text.label {
    font-weight: bold;
    text-anchor: start;
    stroke: white;
    stroke-width: 4;
    paint-order: stroke;
}

/* styling for optional footer */
text.footer {
    text-anchor: end;
    dominant-baseline: auto;
    stroke: white;
    stroke-width: 4;
    paint-order: stroke;
}

/* styling for combo tap, and key non-tap label text */
text.combo, text.hold, text.shifted, text.left, text.right {
    font-size: 11px;
}

text.hold {
    text-anchor: middle;
    dominant-baseline: auto;
}

text.shifted {
    text-anchor: middle;
    dominant-baseline: hanging;
}

text.left {
    text-anchor: start;
}

text.right {
    text-anchor: end;
}

text.layer-activator {
    text-decoration: underline;
}

/* styling for hold/shifted label text in combo box */
text.combo.hold, text.combo.shifted, text.combo.left, text.combo.right {
    font-size: 8px;
}

/* lighter symbol for transparent keys */
text.trans {
    fill: #7b7e81;
}

/* styling for combo dendrons */
path.combo {
    stroke-width: 1;
    stroke: gray;
    fill: none;
}

/* Start Tabler Icons Cleanup */
/* cannot use height/width with glyphs */
.icon-tabler > path {
    fill: inherit;
    stroke: inherit;
    stroke-width: 2;
}
/* hide tabler's default box */
.icon-tabler > path[stroke="none"][fill="none"] {
    visibility: hidden;
}
/* End Tabler Icons Cleanup */
</style>
<g transform="translate(30, 0)" class="layer-LDT">
<text x="0" y="28" class="label" id="LDT">LDT:</text>
<g transform="translate(0, 56)">
<g transform="translate(28, 49)" class="key keypos-0">
<rect rx="6" ry="6" x="-26" y="-26" width="52" height="52" class="key"/>
<text x="0" y="0" class="key tap">ESCAPE</text>
</g>
<g transform="translate(84, 49)" class="key keypos-1">
<rect rx="6" ry="6" x="-26" y="-26" width="52" height="52" class="key"/>
<text x="0" y="0" class="key tap">Q</text>
</g>
<g transform="translate(140, 35)" class="key keypos-2">
<rect rx="6" ry="6" x="-26" y="-26" width="52" height="52" class="key"/>
<text x="0" y="0" class="key tap">W</text>
</g>
<g transform="translate(196, 28)" class="key keypos-3">
<rect rx="6" ry="6" x="-26" y="-26" width="52" height="52" class="key"/>
<text x="0" y="0" class="key tap">E</text>
</g>
<g transform="translate(252, 35)" class="key keypos-4">
<rect rx="6" ry="6" x="-26" y="-26" width="52" height="52" class="key"/>
<text x="0" y="0" class="key tap">R</text>
</g>
<g transform="translate(308, 42)" class="key keypos-5">
<rect rx="6" ry="6" x="-26" y="-26" width="52" height="52" class="key"/>
<text x="0" y="0" class="key tap">T</text>
</g>
<g transform="translate(532, 42)" class="key keypos-6">
<rect rx="6" ry="6" x="-26" y="-26" width="52" height="52" class="key"/>
<text x="0" y="0" class="key tap">Y</text>
</g>
<g transform="translate(588, 35)" class="key keypos-7">
<rect rx="6" ry="6" x="-26" y="-26" width="52" height="52" class="key"/>
<text x="0" y="0" class="key tap">U</text>
</g>
<g transform="translate(644, 28)" class="key keypos-8">
<rect rx="6" ry="6" x="-26" y="-26" width="52" height="52" class="key"/>
<text x="0" y="0" class="key tap">I</text>
</g>
<g transform="translate(700, 35)" class="key keypos-9">
<rect rx="6" ry="6" x="-26" y="-26" width="52" height="52" class="key"/>
<text x="0" y="0" class="key tap">O</text>
</g>
<g transform="translate(756, 49)" class="key keypos-10">
<rect rx="6" ry="6" x="-26" y="-26" width="52" height="52" class="key"/>
<text x="0" y="0" class="key tap">P</text>
</g>
<g transform="translate(812, 49)" class="key keypos-11">
<rect rx="6" ry="6" x="-26" y="-26" width="52" height="52" class="key"/>
<text x="0" y="0" class="key tap">BSPC</text>
</g>
<g transform="translate(28, 105)" class="key keypos-12">
<rect rx="6" ry="6" x="-26" y="-26" width="52" height="52" class="key"/>
<text x="0" y="0" class="key tap">TAB</text>
</g>
<g transform="translate(84, 105)" class="key keypos-13">
<rect rx="6" ry="6" x="-26" y="-26" width="52" height="52" class="key"/>
<text x="0" y="0" class="key tap">A</text>
</g>
<g transform="translate(140, 91)" class="key keypos-14">
<rect rx="6" ry="6" x="-26" y="-26" width="52" height="52" class="key"/>
<text x="0" y="0" class="key tap">S</text>
</g>
<g transform="translate(196, 84)" class="key keypos-15">
<rect rx="6" ry="6" x="-26" y="-26" width="52" height="52" class="key"/>
<text x="0" y="0" class="key tap">D</text>
</g>
<g transform="translate(252, 91)" class="key keypos-16">
<rect rx="6" ry="6" x="-26" y="-26" width="52" height="52" class="key"/>
<text x="0" y="0" class="key tap">F</text>
</g>
<g transform="translate(308, 98)" class="key keypos-17">
<rect rx="6" ry="6" x="-26" y="-26" width="52" height="52" class="key"/>
<text x="0" y="0" class="key tap">G</text>
</g>
<g transform="translate(532, 98)" class="key keypos-18">
<rect rx="6" ry="6" x="-26" y="-26" width="52" height="52" class="key"/>
<text x="0" y="0" class="key tap">H</text>
</g>
<g transform="translate(588, 91)" class="key keypos-19">
<rect rx="6" ry="6" x="-26" y="-26" width="52" height="52" class="key"/>
<text x="0" y="0" class="key tap">J</text>
</g>
<g transform="translate(644, 84)" class="key keypos-20">
<rect rx="6" ry="6" x="-26" y="-26" width="52" height="52" class="key"/>
<text x="0" y="0" class="key tap">K</text>
</g>
<g transform="translate(700, 91)" class="key keypos-21">
<rect rx="6" ry="6" x="-26" y="-26" width="52" height="52" class="key"/>
<text x="0" y="0" class="key tap">L</text>
</g>
<g transform="translate(756, 105)" class="key keypos-22">
<rect rx="6" ry="6" x="-26" y="-26" width="52" height="52" class="key"/>
<text x="0" y="0" class="key tap">;</text>
</g>
<g transform="translate(812, 105)" class="key keypos-23">
<rect rx="6" ry="6" x="-26" y="-26" width="52" height="52" class="key"/>
<text x="0" y="0" class="key tap">&#x27;</text>
</g>
<g transform="translate(28, 161)" class="key keypos-24">
<rect rx="6" ry="6" x="-26" y="-26" width="52" height="52" class="key"/>
<text x="0" y="0" class="key tap">LSHFT</text>
</g>
<g transform="translate(84, 161)" class="key keypos-25">
<rect rx="6" ry="6" x="-26" y="-26" width="52" height="52" class="key"/>
<text x="0" y="0" class="key tap">Z</text>
</g>
<g transform="translate(140, 147)" class="key keypos-26">
<rect rx="6" ry="6" x="-26" y="-26" width="52" height="52" class="key"/>
<text x="0" y="0" class="key tap">X</text>
</g>
<g transform="translate(196, 140)" class="key keypos-27">
<rect rx="6" ry="6" x="-26" y="-26" width="52" height="52" class="key"/>
<text x="0" y="0" class="key tap">C</text>
</g>
<g transform="translate(252, 147)" class="key keypos-28">
<rect rx="6" ry="6" x="-26" y="-26" width="52" height="52" class="key"/>
<text x="0" y="0" class="key tap">V</text>
</g>
<g transform="translate(308, 154)" class="key keypos-29">
<rect rx="6" ry="6" x="-26" y="-26" width="52" height="52" class="key"/>
<text x="0" y="0" class="key tap">B</text>
</g>
<g transform="translate(532, 154)" class="key keypos-30">
<rect rx="6" ry="6" x="-26" y="-26" width="52" height="52" class="key"/>
<text x="0" y="0" class="key tap">N</text>
</g>
<g transform="translate(588, 147)" class="key keypos-31">
<rect rx="6" ry="6" x="-26" y="-26" width="52" height="52" class="key"/>
<text x="0" y="0" class="key tap">M</text>
</g>
<g transform="translate(644, 140)" class="key keypos-32">
<rect rx="6" ry="6" x="-26" y="-26" width="52" height="52" class="key"/>
<text x="0" y="0" class="key tap">,</text>
</g>
<g transform="translate(700, 147)" class="key keypos-33">
<rect rx="6" ry="6" x="-26" y="-26" width="52" height="52" class="key"/>
<text x="0" y="0" class="key tap">.</text>
</g>
<g transform="translate(756, 161)" class="key keypos-34">
<rect rx="6" ry="6" x="-26" y="-26" width="52" height="52" class="key"/>
<text x="0" y="0" class="key tap">/</text>
</g>
<g transform="translate(812, 161)" class="key keypos-35">
<rect rx="6" ry="6" x="-26" y="-26" width="52" height="52" class="key"/>
<text x="0" y="0" class="key tap">
<tspan x="0" dy="-0.6em">RIGHT</tspan><tspan x="0" dy="1.2em">SHIFT</tspan>
</text>
</g>
<g transform="translate(224, 205)" class="key keypos-36">
<rect rx="6" ry="6" x="-26" y="-26" width="52" height="52" class="key"/>
<text x="0" y="0" class="key tap">
<tspan x="0" dy="-0.6em">LEFT</tspan><tspan x="0" dy="1.2em">ALT</tspan>
</text>
</g>
<g transform="translate(286, 213) rotate(15.0)" class="key keypos-37">
<rect rx="6" ry="6" x="-26" y="-26" width="52" height="52" class="key"/>
<text x="0" y="0" class="key tap">
<tspan x="0" dy="-0.6em">LEFT</tspan><tspan x="0" dy="1.2em">WIN</tspan>
</text>
</g>
<g transform="translate(351, 224) rotate(30.0)" class="key keypos-38">
<rect rx="6" ry="6" x="-26" y="-40" width="52" height="80" class="key"/>
<text x="0" y="0" class="key tap">LCTRL</text>
</g>
<g transform="translate(489, 224) rotate(-30.0)" class="key keypos-39">
<rect rx="6" ry="6" x="-26" y="-40" width="52" height="80" class="key"/>
<text x="0" y="0" class="key tap">SPACE</text>
<a href="#Number">
<text x="0" y="38" class="key hold layer-activator">Number</text>
</a></g>
<g transform="translate(554, 213) rotate(-15.0)" class="key keypos-40">
<rect rx="6" ry="6" x="-26" y="-26" width="52" height="52" class="key"/>
<text x="0" y="0" class="key tap">ENTER</text>
</g>
<g transform="translate(616, 205)" class="key keypos-41">
<rect rx="6" ry="6" x="-26" y="-26" width="52" height="52" class="key"/>
<text x="0" y="0" class="key tap">RALT</text>
</g>
<g class="combo combopos-0">
<rect rx="6" ry="6" x="304" y="206" width="28" height="26" class="combo"/>
<text x="318" y="219" class="combo tap">ENTER</text>
</g>
<g class="combo combopos-1">
<rect rx="6" ry="6" x="241" y="196" width="28" height="26" class="combo"/>
<text x="255" y="209" class="combo tap"><tspan style="font-size: 78%">BACKSPACE</tspan></text>
</g>
<g class="combo combopos-2">
<path d="M287,214 l46,7" class="combo"/>
<path d="M287,214 l-44,-7" class="combo"/>
<rect rx="6" ry="6" x="273" y="201" width="28" height="26" class="combo"/>
<text x="287" y="214" class="combo tap">DELETE</text>
</g>
<g class="combo combopos-3">
<rect rx="6" ry="6" x="574" y="50" width="28" height="26" class="combo"/>
<text x="588" y="63" class="combo tap">[</text>
</g>
<g class="combo combopos-4">
<rect rx="6" ry="6" x="630" y="43" width="28" height="26" class="combo"/>
<text x="644" y="56" class="combo tap">]</text>
</g>
<g class="combo combopos-5">
<rect rx="6" ry="6" x="602" y="46" width="28" height="26" class="combo"/>
<text x="616" y="60" class="combo tap">{</text>
</g>
<g class="combo combopos-6">
<rect rx="6" ry="6" x="658" y="46" width="28" height="26" class="combo"/>
<text x="672" y="60" class="combo tap">}</text>
</g>
<g class="combo combopos-7">
<rect rx="6" ry="6" x="602" y="102" width="28" height="26" class="combo"/>
<text x="616" y="116" class="combo tap">(</text>
</g>
<g class="combo combopos-8">
<rect rx="6" ry="6" x="658" y="102" width="28" height="26" class="combo"/>
<text x="672" y="116" class="combo tap">)</text>
</g>
<g class="combo combopos-9">
<path d="M571,152 l12,-43" class="combo"/>
<path d="M571,152 l-12,43" class="combo"/>
<rect rx="6" ry="6" x="557" y="139" width="28" height="26" class="combo"/>
<text x="571" y="152" class="combo tap">
<tspan x="571" dy="-0.6em">LEFT</tspan><tspan x="571" dy="1.2em">ARROW</tspan>
</text>
</g>
<g class="combo combopos-10">
<path d="M627,152 l58,-49" class="combo"/>
<path d="M627,152 l-58,49" class="combo"/>
<rect rx="6" ry="6" x="613" y="139" width="28" height="26" class="combo"/>
<text x="627" y="152" class="combo tap">RIGHT</text>
</g>
<g class="combo combopos-11">
<path d="M599,121 l37,-76" class="combo"/>
<path d="M599,121 l-37,76" class="combo"/>
<rect rx="6" ry="6" x="585" y="108" width="28" height="26" class="combo"/>
<text x="599" y="121" class="combo tap">
<tspan x="599" dy="-0.6em">UP</tspan><tspan x="599" dy="1.2em">ARROW</tspan>
</text>
</g>
<g class="combo combopos-12">
<path d="M599,149 l34,-49" class="combo"/>
<path d="M599,149 l-34,49" class="combo"/>
<rect rx="6" ry="6" x="585" y="136" width="28" height="26" class="combo"/>
<text x="599" y="149" class="combo tap">
<tspan x="599" dy="-0.6em">DOWN</tspan><tspan x="599" dy="1.2em">ARROW</tspan>
</text>
</g>
<g class="combo combopos-13">
<rect rx="6" ry="6" x="518" y="57" width="28" height="26" class="combo"/>
<text x="532" y="70" class="combo tap">`</text>
</g>
<g class="combo combopos-14">
<rect rx="6" ry="6" x="546" y="26" width="28" height="26" class="combo"/>
<text x="560" y="38" class="combo tap">~</text>
</g>
<g class="combo combopos-15">
<rect rx="6" ry="6" x="602" y="18" width="28" height="26" class="combo"/>
<text x="616" y="32" class="combo tap">+</text>
</g>
<g class="combo combopos-16">
<rect rx="6" ry="6" x="602" y="74" width="28" height="26" class="combo"/>
<text x="616" y="88" class="combo tap">-</text>
</g>
<g class="combo combopos-17">
<path d="M476,142 l-261,-2" class="combo"/>
<path d="M476,142 l93,4" class="combo"/>
<path d="M476,142 l149,-2" class="combo"/>
<rect rx="6" ry="6" x="462" y="129" width="28" height="26" class="combo"/>
<text x="476" y="142" class="combo tap">_</text>
</g>
<g class="combo combopos-18">
<path d="M434,108 l-331,-3" class="combo"/>
<path d="M434,108 l-108,39" class="combo"/>
<path d="M434,108 l191,-22" class="combo"/>
<path d="M434,108 l247,-16" class="combo"/>
<rect rx="6" ry="6" x="420" y="96" width="28" height="26" class="combo"/>
<text x="434" y="108" class="combo tap">=</text>
</g>
<g class="combo combopos-19">
<rect rx="6" ry="6" x="294" y="57" width="28" height="26" class="combo"/>
<text x="308" y="70" class="combo tap">!</text>
</g>
<g class="combo combopos-20">
<rect rx="6" ry="6" x="238" y="50" width="28" height="26" class="combo"/>
<text x="252" y="63" class="combo tap">|</text>
</g>
<g class="combo combopos-21">
<rect rx="6" ry="6" x="210" y="46" width="28" height="26" class="combo"/>
<text x="224" y="60" class="combo tap">$</text>
</g>
<g class="combo combopos-22">
<rect rx="6" ry="6" x="210" y="46" width="28" height="26" class="combo"/>
<text x="224" y="60" class="combo tap">%</text>
</g>
<g class="combo combopos-23">
<rect rx="6" ry="6" x="210" y="18" width="28" height="26" class="combo"/>
<text x="224" y="32" class="combo tap">*</text>
</g>
<g class="combo combopos-24">
<rect rx="6" ry="6" x="210" y="74" width="28" height="26" class="combo"/>
<text x="224" y="88" class="combo tap">&amp;</text>
</g>
<g class="combo combopos-25">
<rect rx="6" ry="6" x="266" y="54" width="28" height="26" class="combo"/>
<text x="280" y="66" class="combo tap">#</text>
</g>
<g class="combo combopos-26">
<rect rx="6" ry="6" x="266" y="54" width="28" height="26" class="combo"/>
<text x="280" y="66" class="combo tap">\</text>
</g>
<g class="combo combopos-27">
<rect rx="6" ry="6" x="266" y="26" width="28" height="26" class="combo"/>
<text x="280" y="38" class="combo tap">^</text>
</g>
<g class="combo combopos-28">
<rect rx="6" ry="6" x="266" y="82" width="28" height="26" class="combo"/>
<text x="280" y="94" class="combo tap">@</text>
</g>
</g>
</g>
<g transform="translate(30, 331)" class="layer-Number">
<text x="0" y="28" class="label" id="Number">Number:</text>
<g transform="translate(0, 56)">
<g transform="translate(28, 49)" class="key keypos-0">
<rect rx="6" ry="6" x="-26" y="-26" width="52" height="52" class="key"/>
<text x="0" y="0" class="key tap">`</text>
</g>
<g transform="translate(84, 49)" class="key trans keypos-1">
<rect rx="6" ry="6" x="-26" y="-26" width="52" height="52" class="key trans"/>
<text x="0" y="0" class="key trans tap">▽</text>
</g>
<g transform="translate(140, 35)" class="key trans keypos-2">
<rect rx="6" ry="6" x="-26" y="-26" width="52" height="52" class="key trans"/>
<text x="0" y="0" class="key trans tap">▽</text>
</g>
<g transform="translate(196, 28)" class="key trans keypos-3">
<rect rx="6" ry="6" x="-26" y="-26" width="52" height="52" class="key trans"/>
<text x="0" y="0" class="key trans tap">▽</text>
</g>
<g transform="translate(252, 35)" class="key trans keypos-4">
<rect rx="6" ry="6" x="-26" y="-26" width="52" height="52" class="key trans"/>
<text x="0" y="0" class="key trans tap">▽</text>
</g>
<g transform="translate(308, 42)" class="key trans keypos-5">
<rect rx="6" ry="6" x="-26" y="-26" width="52" height="52" class="key trans"/>
<text x="0" y="0" class="key trans tap">▽</text>
</g>
<g transform="translate(532, 42)" class="key keypos-6">
<rect rx="6" ry="6" x="-26" y="-26" width="52" height="52" class="key"/>
<text x="0" y="0" class="key tap">1</text>
</g>
<g transform="translate(588, 35)" class="key keypos-7">
<rect rx="6" ry="6" x="-26" y="-26" width="52" height="52" class="key"/>
<text x="0" y="0" class="key tap">2</text>
</g>
<g transform="translate(644, 28)" class="key keypos-8">
<rect rx="6" ry="6" x="-26" y="-26" width="52" height="52" class="key"/>
<text x="0" y="0" class="key tap">3</text>
</g>
<g transform="translate(700, 35)" class="key keypos-9">
<rect rx="6" ry="6" x="-26" y="-26" width="52" height="52" class="key"/>
<text x="0" y="0" class="key tap">DELETE</text>
</g>
<g transform="translate(756, 49)" class="key keypos-10">
<rect rx="6" ry="6" x="-26" y="-26" width="52" height="52" class="key"/>
<text x="0" y="0" class="key tap">
<tspan x="0" dy="-0.6em">UP</tspan><tspan x="0" dy="1.2em">ARROW</tspan>
</text>
</g>
<g transform="translate(812, 49)" class="key keypos-11">
<rect rx="6" ry="6" x="-26" y="-26" width="52" height="52" class="key"/>
<text x="0" y="0" class="key tap"><tspan style="font-size: 78%">BACKSPACE</tspan></text>
</g>
<g transform="translate(28, 105)" class="key trans keypos-12">
<rect rx="6" ry="6" x="-26" y="-26" width="52" height="52" class="key trans"/>
<text x="0" y="0" class="key trans tap">▽</text>
</g>
<g transform="translate(84, 105)" class="key trans keypos-13">
<rect rx="6" ry="6" x="-26" y="-26" width="52" height="52" class="key trans"/>
<text x="0" y="0" class="key trans tap">▽</text>
</g>
<g transform="translate(140, 91)" class="key trans keypos-14">
<rect rx="6" ry="6" x="-26" y="-26" width="52" height="52" class="key trans"/>
<text x="0" y="0" class="key trans tap">▽</text>
</g>
<g transform="translate(196, 84)" class="key trans keypos-15">
<rect rx="6" ry="6" x="-26" y="-26" width="52" height="52" class="key trans"/>
<text x="0" y="0" class="key trans tap">▽</text>
</g>
<g transform="translate(252, 91)" class="key trans keypos-16">
<rect rx="6" ry="6" x="-26" y="-26" width="52" height="52" class="key trans"/>
<text x="0" y="0" class="key trans tap">▽</text>
</g>
<g transform="translate(308, 98)" class="key trans keypos-17">
<rect rx="6" ry="6" x="-26" y="-26" width="52" height="52" class="key trans"/>
<text x="0" y="0" class="key trans tap">▽</text>
</g>
<g transform="translate(532, 98)" class="key keypos-18">
<rect rx="6" ry="6" x="-26" y="-26" width="52" height="52" class="key"/>
<text x="0" y="0" class="key tap">4</text>
</g>
<g transform="translate(588, 91)" class="key keypos-19">
<rect rx="6" ry="6" x="-26" y="-26" width="52" height="52" class="key"/>
<text x="0" y="0" class="key tap">5</text>
</g>
<g transform="translate(644, 84)" class="key keypos-20">
<rect rx="6" ry="6" x="-26" y="-26" width="52" height="52" class="key"/>
<text x="0" y="0" class="key tap">6</text>
</g>
<g transform="translate(700, 91)" class="key keypos-21">
<rect rx="6" ry="6" x="-26" y="-26" width="52" height="52" class="key"/>
<text x="0" y="0" class="key tap">LEFT</text>
</g>
<g transform="translate(756, 105)" class="key keypos-22">
<rect rx="6" ry="6" x="-26" y="-26" width="52" height="52" class="key"/>
<text x="0" y="0" class="key tap">DOWN</text>
</g>
<g transform="translate(812, 105)" class="key keypos-23">
<rect rx="6" ry="6" x="-26" y="-26" width="52" height="52" class="key"/>
<text x="0" y="0" class="key tap">RIGHT</text>
</g>
<g transform="translate(28, 161)" class="key keypos-24">
<rect rx="6" ry="6" x="-26" y="-26" width="52" height="52" class="key"/>
<text x="0" y="0" class="key tap">
<tspan x="0" dy="-0.6em">LEFT</tspan><tspan x="0" dy="1.2em">SHIFT</tspan>
</text>
</g>
<g transform="translate(84, 161)" class="key trans keypos-25">
<rect rx="6" ry="6" x="-26" y="-26" width="52" height="52" class="key trans"/>
<text x="0" y="0" class="key trans tap">▽</text>
</g>
<g transform="translate(140, 147)" class="key trans keypos-26">
<rect rx="6" ry="6" x="-26" y="-26" width="52" height="52" class="key trans"/>
<text x="0" y="0" class="key trans tap">▽</text>
</g>
<g transform="translate(196, 140)" class="key keypos-27">
<rect rx="6" ry="6" x="-26" y="-26" width="52" height="52" class="key"/>
<text x="0" y="0" class="key tap">
<tspan x="0" dy="-1.2em">BT</tspan><tspan x="0" dy="1.2em">CLR</tspan><tspan x="0" dy="1.2em">ALL</tspan>
</text>
</g>
<g transform="translate(252, 147)" class="key trans keypos-28">
<rect rx="6" ry="6" x="-26" y="-26" width="52" height="52" class="key trans"/>
<text x="0" y="0" class="key trans tap">▽</text>
</g>
<g transform="translate(308, 154)" class="key trans keypos-29">
<rect rx="6" ry="6" x="-26" y="-26" width="52" height="52" class="key trans"/>
<text x="0" y="0" class="key trans tap">▽</text>
</g>
<g transform="translate(532, 154)" class="key keypos-30">
<rect rx="6" ry="6" x="-26" y="-26" width="52" height="52" class="key"/>
<text x="0" y="0" class="key tap">7</text>
</g>
<g transform="translate(588, 147)" class="key keypos-31">
<rect rx="6" ry="6" x="-26" y="-26" width="52" height="52" class="key"/>
<text x="0" y="0" class="key tap">8</text>
</g>
<g transform="translate(644, 140)" class="key keypos-32">
<rect rx="6" ry="6" x="-26" y="-26" width="52" height="52" class="key"/>
<text x="0" y="0" class="key tap">9</text>
</g>
<g transform="translate(700, 147)" class="key keypos-33">
<rect rx="6" ry="6" x="-26" y="-26" width="52" height="52" class="key"/>
<text x="0" y="0" class="key tap">0</text>
</g>
<g transform="translate(756, 161)" class="key keypos-34">
<rect rx="6" ry="6" x="-26" y="-26" width="52" height="52" class="key"/>
<text x="0" y="0" class="key tap">
<tspan x="0" dy="-0.6em">LEFT</tspan><tspan x="0" dy="1.2em">SHIFT</tspan>
</text>
</g>
<g transform="translate(812, 161)" class="key keypos-35">
<rect rx="6" ry="6" x="-26" y="-26" width="52" height="52" class="key"/>
<text x="0" y="0" class="key tap">
<tspan x="0" dy="-0.6em">LEFT</tspan><tspan x="0" dy="1.2em">ALT</tspan>
</text>
</g>
<g transform="translate(224, 205)" class="key keypos-36">
<rect rx="6" ry="6" x="-26" y="-26" width="52" height="52" class="key"/>
<text x="0" y="0" class="key tap">
<tspan x="0" dy="-0.6em">LEFT</tspan><tspan x="0" dy="1.2em">ALT</tspan>
</text>
</g>
<g transform="translate(286, 213) rotate(15.0)" class="key keypos-37">
<rect rx="6" ry="6" x="-26" y="-26" width="52" height="52" class="key"/>
<text x="0" y="0" class="key tap">LWIN</text>
</g>
<g transform="translate(351, 224) rotate(30.0)" class="key keypos-38">
<rect rx="6" ry="6" x="-26" y="-40" width="52" height="80" class="key"/>
<text x="0" y="0" class="key tap">LCTRL</text>
</g>
<g transform="translate(489, 224) rotate(-30.0)" class="key held keypos-39">
<rect rx="6" ry="6" x="-26" y="-40" width="52" height="80" class="key held"/>
<text x="0" y="0" class="key held tap">SPACE</text>
</g>
<g transform="translate(554, 213) rotate(-15.0)" class="key keypos-40">
<rect rx="6" ry="6" x="-26" y="-26" width="52" height="52" class="key"/>
<text x="0" y="0" class="key tap">ENTER</text>
</g>
<g transform="translate(616, 205)" class="key keypos-41">
<rect rx="6" ry="6" x="-26" y="-26" width="52" height="52" class="key"/>
<text x="0" y="0" class="key tap">
<tspan x="0" dy="-0.6em">LEFT</tspan><tspan x="0" dy="1.2em">ALT</tspan>
</text>
</g>
<g class="combo combopos-0">
<rect rx="6" ry="6" x="304" y="206" width="28" height="26" class="combo"/>
<text x="318" y="219" class="combo tap">ENTER</text>
</g>
<g class="combo combopos-1">
<rect rx="6" ry="6" x="241" y="196" width="28" height="26" class="combo"/>
<text x="255" y="209" class="combo tap"><tspan style="font-size: 78%">BACKSPACE</tspan></text>
</g>
<g class="combo combopos-2">
<path d="M287,214 l46,7" class="combo"/>
<path d="M287,214 l-44,-7" class="combo"/>
<rect rx="6" ry="6" x="273" y="201" width="28" height="26" class="combo"/>
<text x="287" y="214" class="combo tap">DELETE</text>
</g>
<g class="combo combopos-3">
<rect rx="6" ry="6" x="574" y="50" width="28" height="26" class="combo"/>
<text x="588" y="63" class="combo tap">[</text>
</g>
<g class="combo combopos-4">
<rect rx="6" ry="6" x="630" y="43" width="28" height="26" class="combo"/>
<text x="644" y="56" class="combo tap">]</text>
</g>
<g class="combo combopos-5">
<rect rx="6" ry="6" x="602" y="46" width="28" height="26" class="combo"/>
<text x="616" y="60" class="combo tap">{</text>
</g>
<g class="combo combopos-6">
<rect rx="6" ry="6" x="658" y="46" width="28" height="26" class="combo"/>
<text x="672" y="60" class="combo tap">}</text>
</g>
<g class="combo combopos-7">
<rect rx="6" ry="6" x="602" y="102" width="28" height="26" class="combo"/>
<text x="616" y="116" class="combo tap">(</text>
</g>
<g class="combo combopos-8">
<rect rx="6" ry="6" x="658" y="102" width="28" height="26" class="combo"/>
<text x="672" y="116" class="combo tap">)</text>
</g>
<g class="combo combopos-9">
<path d="M571,152 l12,-43" class="combo"/>
<path d="M571,152 l-12,43" class="combo"/>
<rect rx="6" ry="6" x="557" y="139" width="28" height="26" class="combo"/>
<text x="571" y="152" class="combo tap">
<tspan x="571" dy="-0.6em">LEFT</tspan><tspan x="571" dy="1.2em">ARROW</tspan>
</text>
</g>
<g class="combo combopos-10">
<path d="M627,152 l58,-49" class="combo"/>
<path d="M627,152 l-58,49" class="combo"/>
<rect rx="6" ry="6" x="613" y="139" width="28" height="26" class="combo"/>
<text x="627" y="152" class="combo tap">RIGHT</text>
</g>
<g class="combo combopos-11">
<path d="M599,121 l37,-76" class="combo"/>
<path d="M599,121 l-37,76" class="combo"/>
<rect rx="6" ry="6" x="585" y="108" width="28" height="26" class="combo"/>
<text x="599" y="121" class="combo tap">
<tspan x="599" dy="-0.6em">UP</tspan><tspan x="599" dy="1.2em">ARROW</tspan>
</text>
</g>
<g class="combo combopos-12">
<path d="M599,149 l34,-49" class="combo"/>
<path d="M599,149 l-34,49" class="combo"/>
<rect rx="6" ry="6" x="585" y="136" width="28" height="26" class="combo"/>
<text x="599" y="149" class="combo tap">
<tspan x="599" dy="-0.6em">DOWN</tspan><tspan x="599" dy="1.2em">ARROW</tspan>
</text>
</g>
<g class="combo combopos-13">
<rect rx="6" ry="6" x="518" y="57" width="28" height="26" class="combo"/>
<text x="532" y="70" class="combo tap">`</text>
</g>
<g class="combo combopos-14">
<rect rx="6" ry="6" x="546" y="26" width="28" height="26" class="combo"/>
<text x="560" y="38" class="combo tap">~</text>
</g>
<g class="combo combopos-15">
<rect rx="6" ry="6" x="602" y="18" width="28" height="26" class="combo"/>
<text x="616" y="32" class="combo tap">+</text>
</g>
<g class="combo combopos-16">
<rect rx="6" ry="6" x="602" y="74" width="28" height="26" class="combo"/>
<text x="616" y="88" class="combo tap">-</text>
</g>
<g class="combo combopos-17">
<path d="M476,142 l-261,-2" class="combo"/>
<path d="M476,142 l93,4" class="combo"/>
<path d="M476,142 l149,-2" class="combo"/>
<rect rx="6" ry="6" x="462" y="129" width="28" height="26" class="combo"/>
<text x="476" y="142" class="combo tap">_</text>
</g>
<g class="combo combopos-18">
<path d="M434,108 l-331,-3" class="combo"/>
<path d="M434,108 l-108,39" class="combo"/>
<path d="M434,108 l191,-22" class="combo"/>
<path d="M434,108 l247,-16" class="combo"/>
<rect rx="6" ry="6" x="420" y="96" width="28" height="26" class="combo"/>
<text x="434" y="108" class="combo tap">=</text>
</g>
<g class="combo combopos-19">
<rect rx="6" ry="6" x="294" y="57" width="28" height="26" class="combo"/>
<text x="308" y="70" class="combo tap">!</text>
</g>
<g class="combo combopos-20">
<rect rx="6" ry="6" x="238" y="50" width="28" height="26" class="combo"/>
<text x="252" y="63" class="combo tap">|</text>
</g>
<g class="combo combopos-21">
<rect rx="6" ry="6" x="210" y="46" width="28" height="26" class="combo"/>
<text x="224" y="60" class="combo tap">$</text>
</g>
<g class="combo combopos-22">
<rect rx="6" ry="6" x="210" y="46" width="28" height="26" class="combo"/>
<text x="224" y="60" class="combo tap">%</text>
</g>
<g class="combo combopos-23">
<rect rx="6" ry="6" x="210" y="18" width="28" height="26" class="combo"/>
<text x="224" y="32" class="combo tap">*</text>
</g>
<g class="combo combopos-24">
<rect rx="6" ry="6" x="210" y="74" width="28" height="26" class="combo"/>
<text x="224" y="88" class="combo tap">&amp;</text>
</g>
<g class="combo combopos-25">
<rect rx="6" ry="6" x="266" y="54" width="28" height="26" class="combo"/>
<text x="280" y="66" class="combo tap">#</text>
</g>
<g class="combo combopos-26">
<rect rx="6" ry="6" x="266" y="54" width="28" height="26" class="combo"/>
<text x="280" y="66" class="combo tap">\</text>
</g>
<g class="combo combopos-27">
<rect rx="6" ry="6" x="266" y="26" width="28" height="26" class="combo"/>
<text x="280" y="38" class="combo tap">^</text>
</g>
<g class="combo combopos-28">
<rect rx="6" ry="6" x="266" y="82" width="28" height="26" class="combo"/>
<text x="280" y="94" class="combo tap">@</text>
</g>
</g>
</g>
</svg>
